<svg width="562" height="202" viewBox="0 0 562 202" fill="none" xmlns="http://www.w3.org/2000/svg">
<path d="M431.5 136.489C442.987 132.548 454.234 130.927 465 131.089M114.5 147.489C102.53 141.741 91.3448 139.106 81 138.888M81 138.888C43.1565 138.092 16.5652 169.646 4 199.489H560C560 176.6 518.435 131.89 465 131.089M81 138.888C94.5246 123.16 112.046 115.603 128.5 115.162M169.5 133.989C160.231 121.346 144.895 114.722 128.5 115.162M128.5 115.162C132.714 96.0293 144.647 81.0477 160.5 72.4491M245 83.9884C216.519 60.999 184.148 59.6222 160.5 72.4491M160.5 72.4491C190.412 0.266975 267.622 -19.8653 310.5 28.0498M329 58.4885C324.095 46.3206 317.794 36.2006 310.5 28.0498M310.5 28.0498C338 19.988 364.498 45.793 375.5 80.488M465 131.089C456.825 98.568 411 50.988 343 95.488" stroke="#E8D8A1" stroke-opacity="0.8" stroke-width="4"/>
</svg>
