<svg width="583" height="261" viewBox="0 0 583 261" fill="none" xmlns="http://www.w3.org/2000/svg">
<path d="M105 201.5C97.1794 199.135 90.0832 197.774 83.5 197.404M83.5 197.404C53.169 195.698 33.7282 215.015 4.5 254L579 258.5C560.364 218.402 544.132 204.891 500.865 203M83.5 197.404C117 136 174.5 121.922 215.5 142M243 171C240.5 159.5 226.152 147.216 215.5 142M215.5 142C213.5 132.462 247.247 100.778 290.5 110M283 136C290.673 110.613 299.346 97.7043 314.5 93.9225M351 96.5C335.546 92.7186 323.802 91.6011 314.5 93.9225M314.5 93.9225C285 -13.5 444.5 -36 444.5 77M405 93.9225C466.5 48 539 110 482.5 175.5M467 175.5C485.519 172.028 499.87 184.334 500.865 203M498 221C500.284 214.606 501.159 208.524 500.865 203" stroke="#E8D8A1" stroke-opacity="0.8" stroke-width="4"/>
</svg>
