<svg width="543" height="184" viewBox="0 0 543 184" fill="none" xmlns="http://www.w3.org/2000/svg">
<path d="M414.5 132.613C421.703 127.083 428.895 123.787 436 122.252M160.5 146.112C137.535 130.313 116.544 122.758 97.5 121.647M97.5 121.647C58.0801 119.348 26.9978 144.656 4 181.613H536.5C516.42 164.95 477.72 113.24 436 122.252M97.5 121.647C117.67 82.4262 134.982 63.4678 160.5 57.7775M205 58.1119C187.356 55.3833 172.951 55.001 160.5 57.7775M160.5 57.7775C188.423 1.7969 313.299 -27.2169 356.713 44.6121M371.5 113.112C372.644 84.0412 366.938 61.5296 356.713 44.6121M356.713 44.6121C388.5 40.1121 425.464 70.0354 436 122.252" stroke="#E8D8A1" stroke-opacity="0.8" stroke-width="4"/>
</svg>
