<svg width="529" height="245" viewBox="0 0 529 245" fill="none" xmlns="http://www.w3.org/2000/svg">
<path d="M84.5 206.654C74.715 206.173 66.3471 206.346 59 207.243M59 207.243C34.5735 210.223 21.4292 221.193 5 242.654H526C519.466 213.851 489 191.154 469.076 206.654M59 207.243C53.9266 162.293 92.1082 135.978 121 139.432M142 149.654C136.513 143.728 129.124 140.403 121 139.432M121 139.432C139.021 118.9 153.102 108.098 170.5 106.015M209 112.154C193.66 106.836 181.426 104.706 170.5 106.015M170.5 106.015C170.5 10.6891 322.585 -38.8148 365.114 44.1541M376 91.6538C375.537 72.5358 371.599 56.805 365.114 44.1541M365.114 44.1541C450.692 52.5596 485.5 102.154 451 184.654M319.5 201.154C356.407 149.023 447.373 158.187 469.076 206.654M473 219.654C472.227 215.053 470.894 210.715 469.076 206.654" stroke="#E8D8A1" stroke-opacity="0.8" stroke-width="4"/>
</svg>
